<?xml version="1.0" encoding="UTF-8" standalone="no"?>
<!-- Created with Inkscape (http://www.inkscape.org/) -->

<svg
   xmlns:dc="http://purl.org/dc/elements/1.1/"
   xmlns:cc="http://creativecommons.org/ns#"
   xmlns:rdf="http://www.w3.org/1999/02/22-rdf-syntax-ns#"
   xmlns:svg="http://www.w3.org/2000/svg"
   xmlns="http://www.w3.org/2000/svg"
   xmlns:sodipodi="http://sodipodi.sourceforge.net/DTD/sodipodi-0.dtd"
   xmlns:inkscape="http://www.inkscape.org/namespaces/inkscape"
   width="1000"
   height="834.14502"
   viewBox="0 0 1000 834.14505"
   id="svg4165"
   version="1.1"
   inkscape:version="0.91 r13725"
   sodipodi:docname="Scott Free Productions Bird.svg">
  <defs
     id="defs4167" />
  <sodipodi:namedview
     id="base"
     pagecolor="#ffffff"
     bordercolor="#666666"
     borderopacity="1.0"
     inkscape:pageopacity="0.0"
     inkscape:pageshadow="2"
     inkscape:zoom="0.5"
     inkscape:cx="571.94252"
     inkscape:cy="421.84874"
     inkscape:document-units="px"
     inkscape:current-layer="layer1"
     showgrid="false"
     inkscape:window-width="1366"
     inkscape:window-height="705"
     inkscape:window-x="-8"
     inkscape:window-y="-8"
     inkscape:window-maximized="1"
     units="px" />
  <metadata
     id="metadata4170">
    <rdf:RDF>
      <cc:Work
         rdf:about="">
        <dc:format>image/svg+xml</dc:format>
        <dc:type
           rdf:resource="http://purl.org/dc/dcmitype/StillImage" />
        <dc:title></dc:title>
      </cc:Work>
    </rdf:RDF>
  </metadata>
  <g
     inkscape:label="Layer 1"
     inkscape:groupmode="layer"
     id="layer1"
     transform="translate(0,-218.21715)">
    <path
       inkscape:connector-curvature="0"
       style="fill:#000000;fill-opacity:1;fill-rule:evenodd;stroke:none;stroke-width:1px;stroke-linecap:butt;stroke-linejoin:miter;stroke-opacity:1"
       d="m 857.62487,218.22827 c -9.15795,0.17727 -17.72844,2.40498 -25.43532,8.03521 -31.08184,85.4643 -1.75065,179.01874 -93.9243,219.57121 -54.63961,-5.29353 -189.8406,-69.09346 -291.52726,-69.74706 -24.99176,-43.287 -103.64784,-81.5354 -182.21886,-81.5354 -33.54367,0 -57.10915,4.22085 -76.34896,13.2002 -22.17046,10.3471 -36.6349,24.18397 -43.43601,31.71556 C 99.555611,347.38892 -3.051758e-5,365.89345 -3.051758e-5,365.89345 51.058885,372.73581 111.38682,384.05633 138.62196,405.59777 c 16.08049,39.55294 56.26515,140.15599 120.60707,194.44328 31.03234,115.81422 144.30981,172.23055 245.95738,209.11256 -7.10669,7.87417 -34.77006,30.88569 -65.86885,54.22349 -37.95561,28.48338 -82.99978,46.96819 -133.65362,18.02922 -19.2013,37.32451 -56.11857,-3.11886 -73.48589,35.01108 -0.22425,0.49204 24.31821,-7.02533 33.83876,-9.80439 17.76253,15.16228 54.08524,3.29339 73.72539,13.2003 -6.19421,10.55633 -19.2373,22.62512 -29.75681,38.59592 29.91903,-15.67249 101.79687,-77.16338 180.68899,-46.03442 2.32899,-22.47665 27.84798,-21.68082 40.3656,-20.42038 -46.53825,-12.97538 -33.51055,7.08807 -64.28185,7.08807 -16.53652,0 -30.81604,-3.53512 -40.19759,-9.66518 26.94747,-17.52618 102.46164,-71.02385 116.47509,-80.03063 40.33831,11.39468 85.01375,-26.13658 106.35597,20.86723 -33.38389,53.57201 -102.79846,146.98357 -145.14884,153.33067 -19.88778,2.98068 -61.87399,-25.23686 -74.1114,8.37492 23.91477,-23.71481 43.92733,1.85293 71.79876,2.8737 -22.95676,33.24999 -66.942,3.60678 -89.63138,32.69829 20.69562,-11.9484 29.01354,2.8326 52.32193,1.0832 23.45627,-1.7607 23.85247,-20.6038 41.35211,-12.9716 -4.59782,7.4625 -20.3156,21.1953 -14.74794,36.7591 21.55403,-23.3164 65.84262,-68.48055 75.45537,-81.0815 24.20239,8.3876 79.60803,-8.14415 105.63753,-20.41695 -56.34394,9.36824 -90.12705,6.26172 -92.40157,2.48075 37.46736,-67.62025 114.09998,-92.5251 89.25613,-153.31277 124.80883,-59.26198 167.43256,-115.30706 173.12558,-133.58923 -1.15535,-16.21668 -1.54239,-27.84373 12.31374,-44.85147 16.53209,-7.85929 122.70664,-41.56778 145.38838,-49.9235 -52.66313,-16.8327 -127.00458,-38.35593 -131.75203,-41.26632 -0.19853,-30.42234 2.59655,-81.4026 5.16854,-104.25423 73.53365,-122.20717 70.35297,-164.16793 75.06579,-190.51145 -30.62063,0 -63.38343,-17.93911 -90.85743,-17.40726 z M 213.11942,364.84258 c 10.39487,0.0929 18.79893,3.72203 24.22364,9.49004 -1.90732,4.66002 -11.78724,14.75864 -24.50243,14.75864 -8.31992,0 -12.43438,-2.84069 -13.67921,-4.08552 -2.82529,0.60083 -4.26533,1.13041 -6.45535,-0.67198 -2.36442,-1.94597 -5.01754,-7.05825 -5.862,-9.81173 6.60142,-6.95528 12.80417,-9.24035 24.17002,-9.65085 0.71038,-0.024 1.41233,-0.0346 2.10533,-0.0274 z m 574.14714,156.92289 c -15.40367,4.12742 -67.24703,21.54031 -131.73057,29.76037 -44.58865,5.68397 -93.16276,5.9987 -112.77559,0.74348 43.45323,-5.27213 62.97303,-7.64732 110.66313,-13.35392 47.69009,-5.70659 104.66302,-13.44351 133.84303,-17.14993 z m 43.2858,30.29654 c -16.81587,4.50582 -76.15249,25.19537 -146.43198,35.03974 -45.93179,6.43389 -91.12501,9.45088 -121.45776,6.68769 47.43739,-5.75556 73.55988,-10.66623 119.15229,-17.54312 45.59237,-6.87682 116.88213,-20.13805 148.73745,-24.18431 z m 50.33458,28.47 c -15.44358,6.79344 -80.05416,31.0214 -149.34155,46.36342 -43.66718,9.66905 -114.28705,20.77455 -144.61983,18.01136 40.32003,-8.34368 73.34146,-15.86313 128.99261,-26.47193 55.65115,-10.60883 133.28077,-30.8014 164.96877,-37.90285 z"
       id="path4724" />
  </g>
</svg>
